<?xml version="1.0" encoding="UTF-8"?>
<!DOCTYPE svg PUBLIC "-//W3C//DTD SVG 1.1//EN" "http://www.w3.org/Graphics/SVG/1.1/DTD/svg11.dtd">
<!-- Creator: CorelDRAW -->
<svg xmlns="http://www.w3.org/2000/svg" xml:space="preserve" width="413.808mm" height="75.1416mm" version="1.1" style="shape-rendering:geometricPrecision; text-rendering:geometricPrecision; image-rendering:optimizeQuality; fill-rule:evenodd; clip-rule:evenodd"
viewBox="0 0 41380.84 7514.16"
 xmlns:xlink="http://www.w3.org/1999/xlink"
 xmlns:xodm="http://www.corel.com/coreldraw/odm/2003">
 <defs>
  <style type="text/css">
   <![CDATA[
    .fil4 {fill:#2D347A}
    .fil0 {fill:#2F357A}
    .fil2 {fill:#313679}
    .fil3 {fill:#31397D}
    .fil1 {fill:#35397A}
    .fil5 {fill:#35397E}
    .fil6 {fill:#5E6194}
    .fil7 {fill:#A5A6BC}
   ]]>
  </style>
 </defs>
 <g id="Camada_x0020_1">
  <metadata id="CorelCorpID_0Corel-Layer"/>
  <image x="-0" y="0" width="41380.84" height="7514.16" xlink:href="logo-maxxi_Images/logo-maxxi_ImgID1.png"/>
  <g id="_492395568">
   <path class="fil0" d="M25223.62 246.94c216.17,144.76 429.95,333.7 635,493.89 121.9,95.24 561,464.71 670.27,493.89l0 105.83c-119.63,31.95 -571.41,429.07 -681.36,518.08 -229.29,185.65 -458.43,382.19 -694.47,540.26l-1270 -1058.34c92.83,-138.62 489.68,-426.2 645.96,-553.48l694.6 -540.13zm-4268.62 -246.94l613.69 0c71.12,15.54 128.91,48.36 190.65,112.89l959.55 839.61c379.82,-254.34 913.67,-952.5 1058.34,-952.5l2716.39 0c74.44,0 219.43,162.14 302.61,226.55 114.04,88.29 168.75,165.09 270.21,258.96 71.86,66.49 86.94,65.26 157.57,124.65 128.15,107.74 182.8,197.9 398.49,342.34 378.93,-253.74 910.36,-952.5 1058.34,-952.5l1403.42 0c117.26,7.26 217.76,18.47 289.91,35.28 -126.47,188.86 -1391.44,1029.89 -1552.22,1270 103.12,154 254.43,246.62 396.95,379.16 130.1,120.98 270.78,215.65 405.35,335.48 135.81,120.94 262.83,226.29 402.09,338.75 122.01,98.53 300.61,234.52 383.11,357.72 -317.5,0 -635,0 -952.5,0 -920.71,0 -528.54,129.2 -1295.75,-609.26 -78.87,-75.92 -425.4,-392.97 -503.42,-413.8 -82.6,55.31 -93.59,82.95 -168.15,149.35 -70.43,62.74 -87.39,61.8 -157.82,124.4 -198.04,176 -743.6,749.31 -944.03,749.31l-2469.44 0c-115.53,0 -904.18,-872.58 -1128.89,-1023.06 -130.71,34.9 -307.87,230.23 -415.09,325.74 -66.06,58.84 -73.34,53.12 -138.95,108 -99.39,83.12 -153.67,163.25 -252.1,241.79 -312.57,249.4 -279.76,351.87 -638.53,349.25l-1448.11 -1.72c138.6,-206.99 1560.78,-1195.76 1728.61,-1446.39 -145.12,-97.18 -267.51,-211.95 -412.22,-328.61l-988.95 -774.95c-79.5,-58.09 -135.58,-90.65 -186.33,-166.44 305.74,0 611.48,0 917.22,0z"/>
   <path class="fil0" d="M7231.95 2716.39l1305.27 0 0 -2081.39c101.13,74.09 576.55,865.16 691.42,1037.19 70.97,106.3 585.79,1044.2 719.69,1044.2l1234.73 0c126.01,0 232.36,-274.66 367.09,-479.57l853.45 -1333.78c38.89,-58.24 52.06,-79.84 84.2,-127.47l106.37 -140.57 0 2081.39 1305.28 0 0 -2716.39 -2116.67 0c-117.63,0 -564.97,754.77 -628.23,853.44 -117.59,183.39 -472.39,785.37 -606.49,875.17 -33.34,-124.84 -732.51,-1133.96 -860.81,-1326.41 -68.57,-102.86 -225.24,-402.2 -338.64,-402.2l-2116.66 0 0 2716.39z"/>
   <path class="fil0" d="M16404.17 1693.33c14.28,-171.63 434.36,-777.2 564.44,-1023.05 79.55,53.26 622.92,877.83 635,1023.05 -132.85,-30.95 -651.18,0 -846.66,0 -86.67,0 -135.94,-20.05 -181.12,-21.17 -83.26,-2.05 -60.75,9.57 -171.66,21.17zm-2222.5 1023.06l1516.94 0c66,-98.56 322.35,-564.45 458.61,-564.45l1693.34 0c109.04,0 201.4,161.11 254.11,239.78 76.78,114.62 166.93,183.96 204.5,324.67l1481.67 0c-32.92,-123.27 -126.32,-227.56 -201.81,-327.36l-1562.08 -2389.03 -2081.39 0c-32.71,140.39 -715.77,1113.27 -875.3,1347.2l-888.59 1369.19z"/>
   <path class="fil1" d="M21695.84 4303.89l0 2610.55c581.44,0 458.61,147.32 458.61,-1023.06 0,-376.29 0,-752.59 0,-1128.88 37.7,43.37 41.39,46.81 70.72,105.66l654.99 1532.23c47.29,112.94 79.34,180.22 115.58,272.47 109.86,279.66 61.03,241.58 463.99,241.58 112.05,0 140.09,-132.8 172.05,-216 44.57,-116.05 72.46,-156.68 120.3,-267.76 77.48,-179.95 657.25,-1588.52 765.98,-1668.18 -33.09,397.69 0,1681.28 0,2151.94 323.22,0 458.61,44.68 458.61,-105.83l0 -2469.45c0,-191.21 -246.84,-141.11 -493.89,-141.11 -202.95,0 -197.45,135.85 -353.76,492.91l-516.39 1176.94c-76.68,159.65 -221.22,462.15 -258.74,623.21l-880.67 -2047.39c-123.79,-293.73 12.46,-245.67 -671.55,-245.67 -81.29,0 -105.83,24.55 -105.83,105.84z"/>
   <path class="fil2" d="M4621.39 105.83c147.76,220.66 358.14,305.87 378.89,677.48 15.37,275.23 -209.36,576.21 -372.76,704.49 -968.65,760.48 -2786.57,755.84 -3827.76,181.88 -471.41,-259.86 -623.37,-531.54 -623.37,-1034.68 -255.34,187.08 -148.12,557.24 -140.19,881.02 9.24,377.21 32.58,684.54 33.15,1095.74 0.31,222.99 38.26,293.25 37.31,527.13 -0.77,188.64 -2.3,377.9 -2.04,566.48 0.31,222.99 38.27,293.25 37.32,527.13 -0.78,188.45 -0.83,376.82 -0.83,565.27 4.68,-7.37 10.38,-28.22 11.99,-23.27 1.61,4.98 9.43,-18.32 11.56,-23.72 2.63,-6.69 28.15,-77.57 28.18,-77.67 52.79,-204.6 -2.9,-1034.96 20.68,-1319.87 36.09,-436.13 68.7,-1023.63 68.7,-1483.52 203.54,54.35 393.03,475.85 1548.19,709.59 1917.19,387.93 4138.86,-666.99 3402.95,-1921.28 -121.65,-207.32 -403.43,-496.51 -611.97,-552.2z"/>
   <path class="fil1" d="M18520.84 5397.5l-1093.61 0 0 -881.95c494.81,0 1763.88,-127.41 1763.88,388.06 0,159.48 18.74,281.81 -235.34,399.65 -109.35,50.72 -287.12,94.24 -434.93,94.24zm-1587.5 -1093.61l0 2504.72c0,144.02 110.59,105.83 388.05,105.83 81.29,0 105.84,-24.55 105.84,-105.83l0 -1093.62c968.8,0 1082.15,3.12 1818.25,1039.25 160.8,226.34 189.39,160.2 686.47,160.2 -38.84,-145.47 -647.73,-851.79 -784.31,-979.58 -112.87,-105.62 -276.61,-162.37 -344.58,-255.14 949.62,-21.16 1185.17,-1050.01 445.16,-1362.38 -394.46,-166.51 -1707.66,-119.29 -2209.05,-119.29 -81.29,0 -105.83,24.55 -105.83,105.84z"/>
   <path class="fil3" d="M28821.95 4303.89l0 2504.72c0,150.51 135.39,105.83 458.61,105.83l0 -2081.39c44.49,32.6 166.84,178.95 219.92,238.69l899.51 1076.05c788.62,811.94 358.41,766.65 1138.35,766.65l0 -2610.55c0,-140.66 -99.94,-105.84 -352.78,-105.84 -160.8,0 -106.97,250.31 -105.96,423.21l0.13 1658.18 -1259.08 -1457.31c-536.99,-638.94 -382.79,-624.08 -892.87,-624.08 -81.28,0 -105.83,24.55 -105.83,105.84z"/>
   <polygon class="fil4" points="30689.55,2716.39 32012.6,2716.39 32021.09,24.44 30678.74,28.61 "/>
   <path class="fil2" d="M35454.17 5714.99c0,-390.08 -7.19,-720.08 331.25,-974.03 684.93,-513.93 1961.81,-248.93 1961.81,727.09 0,367.03 0.3,593.64 -307.1,892.35 -564.6,548.63 -1985.96,282.74 -1985.96,-645.41zm-493.89 -141.11c0,458.48 188.06,775.93 468.41,1013.26 776.12,657.02 2812.43,488.3 2812.43,-1013.26 0,-1864.78 -3280.84,-1899.83 -3280.84,0z"/>
   <path class="fil2" d="M25682.23 4303.89l0 2610.55 2540 0 0 -317.5 -2081.39 0c0,-517.74 -80.55,-917.22 105.83,-917.22l1763.89 0 0 -317.5 -1869.72 0 0 -811.39c436.11,0 1667.81,44.64 2010.83,-35.28l0 -282.22c-349.93,-81.53 -1892.04,-35.28 -2363.61,-35.28 -81.29,0 -105.83,24.55 -105.83,105.84z"/>
   <path class="fil2" d="M7126.11 4868.33c0,545.43 502.81,684.79 984.08,779.81 344.79,68.07 1167.87,156.31 1167.87,525.47 0,497.41 -1070.44,569.76 -1516.92,317.47 -255.25,-144.23 -223.72,-249.9 -352.81,-493.86 -342.05,79.69 -429.04,-33.01 -408.18,154.02 49.8,446.42 610.55,752.35 1080.92,796.1 359.49,33.43 761.51,26.23 1055.89,-103.44 140.1,-61.72 280.74,-123.35 396.91,-238.09 296.03,-292.37 252.13,-772.32 -102.24,-973.83 -781.54,-444.42 -1846.91,-182.83 -1846.91,-798.93 0,-359.33 1220.33,-541.63 1515.98,-34.31 106.96,183.53 61.78,276.32 494.86,175.42 0,-903.15 -1459.35,-925.28 -2056.78,-645.66 -177.21,82.94 -412.67,306.57 -412.67,539.83z"/>
   <path class="fil2" d="M40922.23 6173.61c0,613.82 -1448.29,586.36 -1728.48,105.69 -154.87,-265.68 66.82,-246.81 -529.3,-246.81 0,624.08 702.84,917.23 1199.45,917.23l352.77 0c522.83,0 1164.17,-261.71 1164.17,-811.39 0,-1044.45 -2177.87,-566.43 -2142.66,-1265.98 7.82,-155.4 121.24,-239.56 260.42,-298.76 297.56,-126.57 809.63,-117.81 1084.25,34.39 327.4,181.46 76.15,401.46 445.21,401.46 121.62,0 136.6,-26.1 246.95,-35.28 -6.91,-310.24 -196.61,-492.46 -411.41,-611.64 -491.39,-272.63 -1464.02,-284.87 -1874.56,124.84 -256.04,255.52 -289.51,651.77 21.28,881.77 545.54,403.73 1911.91,249.11 1911.91,804.48z"/>
   <path class="fil1" d="M2998.61 7020.27c-847.02,0 -1317.62,8.33 -2081.93,-387.52 -305.76,-158.35 -615.26,-401.73 -698.26,-749.77 -58.33,-244.64 -6.75,-178.59 -6.75,-414.93 -205.49,150.56 -319.53,1016.25 676.53,1616.52 667.61,402.35 1214.7,428.3 1943.68,429.59l237.29 0c772.51,0 2088.86,-580.19 2400.39,-1233.23 84.21,-176.53 43.75,-942.34 34.93,-1237.37 -5.4,-180.59 -37.36,-216.93 -37.64,-420.97 -0.21,-152.97 4.5,-308.57 2.61,-461.22l-107.24 -1303.87c0,334.4 21.67,2175.17 -14.87,2419.29 -51.81,346.1 24.45,399.11 -139.79,671.59 -311.9,517.45 -1378.57,1071.89 -2208.95,1071.89z"/>
   <path class="fil2" d="M14322.78 4550.83c461.09,0 1189.85,-79.73 1422.19,130.03 305.61,275.92 121.95,642.24 -130.88,737.94 -284.67,107.75 -959.86,84.53 -1291.31,84.53 -170.23,0 -116.36,-630.57 -99.26,-820.83 0.61,-6.77 0.25,-17.37 1.22,-23.58l8.02 -41.21c21.07,-45.18 -57.16,-66.88 90.02,-66.88zm-564.44 -246.94l0 2610.55 458.61 0c0,-272.84 77.94,-163.22 4.51,-746.63 -23.16,-184.02 -45.23,-317.18 100.84,-347.46 315.9,-65.5 1158.05,122.72 1671.49,-162.95 533.4,-296.78 500.18,-1088.41 -71.46,-1330.28 -423.25,-179.1 -1533.45,-129.07 -2058.16,-129.07 -81.29,0 -105.83,24.55 -105.83,105.84z"/>
   <path class="fil2" d="M10336.39 4233.33c0,925.31 -209.11,2098.92 367.06,2490.44 534.99,363.54 2314.05,449.34 2314.05,-761.83l0 -1658.05c0,-140.66 -99.93,-105.84 -352.78,-105.84 -148.72,0 -109.64,159.23 -107.05,316.28l2.42 1272.42c-19.49,711.58 -323.69,845.47 -953.7,845.47 -542.18,0 -770.46,-260.53 -809.77,-777.73 -36.7,-482.85 -1.62,-1121.29 -1.62,-1621.16 -145.73,-33.95 -292.2,-64.59 -458.61,0z"/>
   <path class="fil5" d="M32032.23 4550.83l1093.61 0 0 2257.78c0,144.02 110.59,105.83 388.05,105.83 81.29,0 105.84,-24.55 105.84,-105.83l0 -2257.78c1295.65,0 1128.89,86.11 1128.89,-317.5 -358.94,-83.62 -2207.81,-35.28 -2716.39,-35.28l0 352.78z"/>
   <path class="fil3" d="M20461.11 5891.38c0,197.84 -35.62,280.78 -35.62,423.34l35.62 599.72 458.62 0 0 -2610.55c0,-150.52 -135.4,-105.84 -458.62,-105.84 0,292.36 -46.43,514.55 -36.43,847.82 5.33,177.64 35.49,195.33 37.84,385.5 1.88,152.03 -1.41,307.47 -1.41,460.01z"/>
   <path class="fil2" d="M3421.94 740.83c-102.24,-438.86 -788.01,-342.87 -983.84,-242.98 -642.72,327.84 627.53,916.38 983.84,242.98z"/>
   <path class="fil6" d="M30689.55 2716.39l-10.81 -2687.78 1342.35 -4.17 -8.49 2691.95c116.84,-118.32 54.91,-474.92 54.91,-635l0 -2081.39 -1411.12 0 33.16 2716.39z"/>
   <polygon class="fil7" points="4621.39,105.83 4552.6,65.26 "/>
  </g>
 </g>
</svg>
